<svg xmlns="http://www.w3.org/2000/svg" xmlns:xlink="http://www.w3.org/1999/xlink" width="323.363" height="314.102" viewBox="0 0 323.363 314.102"><defs><clipPath id="a"><path d="M9.241,385.056a58.733,58.733,0,0,0-58.722-58.731,58.6,58.6,0,0,0-47.393,24.131,58.653,58.653,0,0,0-47.393-24.131,58.741,58.741,0,0,0-58.747,58.731c0,58.059,106.14,123.706,106.14,123.706S9.241,439.933,9.241,385.056Z" transform="translate(203.014 -326.325)" fill="#5653a0"/></clipPath></defs><g transform="translate(-346.511 -1527.778)"><path d="M120,0A120,120,0,1,1,0,120,120,120,0,0,1,120,0Z" transform="translate(346.511 1620.525) rotate(-22.734)" fill="#e4e4e4" opacity="0.37"/><g transform="translate(457.619 1605.349)"><path d="M9.241,385.056a58.733,58.733,0,0,0-58.722-58.731,58.6,58.6,0,0,0-47.393,24.131,58.653,58.653,0,0,0-47.393-24.131,58.741,58.741,0,0,0-58.747,58.731c0,58.059,106.14,123.706,106.14,123.706S9.241,439.933,9.241,385.056Z" transform="translate(203.014 -326.325)" fill="#73c6a1"/></g><g transform="translate(456.562 1606.405)" clip-path="url(#a)"><g transform="translate(26.183 45.509)"><g transform="translate(0 0)"><path d="M-128.592,423.54a3.4,3.4,0,0,0-2.471,2.057,5.173,5.173,0,0,0,.336,4.809,20.066,20.066,0,0,0,4.209,4.329,20.6,20.6,0,0,0,2.281-5.441,5.381,5.381,0,0,0-1.387-4.713A3.262,3.262,0,0,0-128.592,423.54Z" transform="translate(193.278 -345.556)" fill="#f5f5f5"/><path d="M-51.944,452.985c-2.311-26.745-12.21-32.054-49-34.372-40.341-2.543-59.54-51.391-59.54-51.391-3.406-6.98-11.929-6.317-15.768-3.785-4.824,3.189-5.261,10.415-2.915,16.576,14.312,44.646,44.589,61.747,44.589,61.747l.1,65.4h53.233l1.043-46.87,7.477-.874.948,25.993H-51.3Zm-52.241,11.287c-.742-.454-4.231-2.615-8.038-5.356-2.417,3.805-4.73,6.969-5.226,7.643l-4.422-3.266c1.529-2.073,3.469-4.885,5.257-7.724-2.68-2.189-5.037-4.456-6.14-6.363a10.729,10.729,0,0,1-.562-9.879,8.985,8.985,0,0,1,6.493-5.149,8.829,8.829,0,0,1,7.783,2.537,10.882,10.882,0,0,1,2.959,9.5,28.18,28.18,0,0,1-3.309,7.962c2.82,2.047,5.791,4.01,8.078,5.41Z" transform="translate(180.549 -361.605)" fill="#f5f5f5"/><path d="M-83.672,387.141a25.527,25.527,0,0,0-25.521-25.524,25.526,25.526,0,0,0-25.521,25.524,25.52,25.52,0,0,0,25.521,25.519A25.522,25.522,0,0,0-83.672,387.141Z" transform="translate(192.445 -361.617)" fill="#f5f5f5"/></g></g></g><g transform="translate(-118.463 1551.283)"><path d="M540.282,40.563A26.815,26.815,0,0,0,528.748,35.3c4-2.816,8.2-6.734,11.046-5.263C542.767,31.573,539.414,34.758,540.282,40.563Z" transform="translate(14.36 0)" fill="#ccc"/><path d="M545.911,53c4.452,3.181,9.634,3.945,8.962,7.644-.637,3.524-5.68,4.99-10.73,6.371a26.728,26.728,0,0,0,2.039-10.251A27.078,27.078,0,0,0,545.911,53Z" transform="translate(19.075 7.129)" fill="#ccc"/><path d="M529.117,75.529c-2.188,3.189-3.388,7.088-6.044,6.489-2.558-.581-2.761-2.661-2.944-5.923C523.209,74.65,528.311,74.881,529.117,75.529Z" transform="translate(11.721 13.875)" fill="#ccc"/><path d="M506.815,61c-4.232-2.218-7.469-1.544-7.469-4.676,0-2.944,4.115-4.636,7.891-6.675a19.016,19.016,0,0,0,2.734-1.8,13.576,13.576,0,0,1,2.2,19.574A12.175,12.175,0,0,0,506.815,61Z" transform="translate(5.356 5.554)" fill="#ccc"/><path d="M522.472,75.263A26.424,26.424,0,0,0,511.381,40.47c-.255-3.749-.293-7.288,1.86-8.532,2.487-1.442,3.736,1.885,7.775,4.13a17.974,17.974,0,0,0,9.187,2.4,22.783,22.783,0,0,1,16.962,7.551c4.129,1.016,11.033.11,12.246,3.206,1.143,2.905-3.944,3.268-6.531,9.421.124,3.59.477,10.446-3.976,15.756-.93,2.034.029,3.7.438,5.723.829,4.085,2.059,8.193-.438,9.635-2.6,1.507-4.73-1.534-9.9-3.727-4.24-1.8-14.08-2.513-18.435.334-5.071,3.318-6.666,7.841-9.3,6.316-1.172-.678-1.741-2.505-1.948-4.782A26.276,26.276,0,0,0,522.472,75.263ZM534.853,46.1a3.963,3.963,0,1,0,3.967,3.962A3.962,3.962,0,0,0,534.853,46.1Zm1.289,27.563a6.041,6.041,0,1,0-6.043-6.04A6.04,6.04,0,0,0,536.142,73.663Z" transform="translate(8.409 0.573)" fill="#ccc"/><path d="M504.521,60.339a9.227,9.227,0,0,1,4.558,5.774,13.521,13.521,0,0,1-7.672,2.384c-.308,0-.614-.016-.917-.035C500.039,66.183,502.783,63.244,504.521,60.339Z" transform="translate(5.691 9.378)" fill="#ccc"/><path d="M482.938,93.752l8.714-14.834a23.32,23.32,0,1,1,11.272,5.5l-6.425,16a7.456,7.456,0,0,1-6.86,4.769,7.923,7.923,0,0,1-3.488-.836A7.456,7.456,0,0,1,482.938,93.752ZM507.1,78.488A16.9,16.9,0,1,0,491.119,67.1,16.814,16.814,0,0,0,507.1,78.488Z" transform="translate(0 2.653)" fill="#ccc"/></g><g transform="translate(60.549 1654.242)"><path d="M335.74,78.692a11.957,11.957,0,0,0-1.97-8.087c-1-1.508-2.148-4.228-1.683-5.415.055-.14.2-.513,1.2-.752.794-.19,1.073.006,1.179.08,1.14.8,1.528,4.1,1.694,5.515.053.464.1.87.155,1.188.2,1.2.906,4.151,3.217,5.547a5.38,5.38,0,0,0,4.638.377c2.234-.745,4.5-3.395,3.544-8.413-.657-3.445-1.144-6.748-1.153-6.809-.255-1.612-.235-4.456.608-5.443a.834.834,0,0,1,.745-.288c1.1,0,1.406.364,1.519.5.333.4,1.027,1.767.28,5.83-1.858,10.111,1.258,13.606,3.319,15.92,1.021,1.146,1.391,1.6,1.356,2.435a2.742,2.742,0,0,1-.293.413s-.48-.076-1.4-1.127a7.419,7.419,0,0,0-6.408-2.567c-4.438.358-8.6,3.946-10.587,7.129a2.227,2.227,0,1,0,3.777,2.36c1.676-2.685,4.759-4.857,7.169-5.05a3.023,3.023,0,0,1,2.7,1.062c1.781,2.036,3.626,2.9,5.47,2.585a5.528,5.528,0,0,0,3.822-3.365l.137-.52c.424-3.133-1.151-4.9-2.416-6.32-1.748-1.959-3.728-4.183-2.264-12.151.811-4.408.406-7.51-1.238-9.483a6.1,6.1,0,0,0-4.941-2.1,5.261,5.261,0,0,0-4.137,1.857c-2.458,2.883-1.777,8.031-1.619,9,.02.139.506,3.428,1.182,6.968.428,2.245-.206,3.229-.58,3.354-.632.21-.854.077-.928.036A3.98,3.98,0,0,1,340.7,70.5c-.042-.265-.081-.6-.126-.984-.294-2.511-.788-6.709-3.57-8.649a6.382,6.382,0,0,0-9.07,2.7c-1.484,3.791,1.51,8.584,2.211,9.628a7.428,7.428,0,0,1,1.175,4.918c-.534,3.739-2.064,7.323-2.892,7.526a.54.54,0,0,1-.179-.057,2.483,2.483,0,0,1-.581-.34,7.058,7.058,0,0,1,.434-1.913c.72-2.339,1.811-5.875-.828-9.93a17.714,17.714,0,0,0-1.766-2.248c1.244-2.783,1.44-5.12.576-7.114-1.412-3.257-5.1-4.361-8.072-5.247a15.056,15.056,0,0,1-3.144-1.165,2.206,2.206,0,0,1,.741-1.543c.979-.556,3.385.006,7.141,1.655,5.912,2.591,15.861.239,16.977-.038a2.227,2.227,0,1,0-1.074-4.323c-2.62.651-10.262,1.97-14.113.281-4-1.756-8.119-3.147-11.118-1.455a6.331,6.331,0,0,0-3,5.046c-.5,3.774,3.441,4.95,6.316,5.81,2.19.654,4.673,1.395,5.26,2.749a3.568,3.568,0,0,1-.1,2.354,10.2,10.2,0,0,0-6.641-1.538c-1.8.273-5.029,1.452-6.4,6.291-1.274,4.5,1.146,6.936,3.6,7.653,3.577,1.049,8.547-.784,11.132-4.663,1.438,2.271.889,4.053.253,6.114-.653,2.12-1.748,5.672,2.571,7.622a4.878,4.878,0,0,0,2.012.45,4.514,4.514,0,0,0,2.185-.567C334.313,87.491,335.527,80.183,335.74,78.692Zm-22.029-2.4c-.381-.112-1.088-.319-.566-2.166s1.462-2.9,2.783-3.1a3.391,3.391,0,0,1,.539-.041A7.093,7.093,0,0,1,320.4,72.5C319.1,75.526,315.4,76.778,313.71,76.292Z" transform="translate(4.172 5.847)" fill="#ccc"/><path d="M374.753,76.08a28.792,28.792,0,0,1-1.988-3.1c-2.185-4.76-.758-9.6.752-14.732,1.745-5.919,4.133-14.03-3.417-19.279-6.337-4.4-12.745-1.115-18.4,1.785-7.916,4.061-16.1,8.264-29.216-.2-6.124-3.949-12.28-4.435-16.887-1.319-4.47,3.018-6.388,8.716-5.132,15.242,1.951,10.132.556,15.25-.791,20.2-1.092,4.013-2.222,8.163-1.158,13.721a5.431,5.431,0,1,0,10.668-2.042c-.591-3.088.031-5.372.97-8.827,1.437-5.275,3.4-12.5.977-25.107-.475-2.46.083-3.873.545-4.187.506-.344,2.29-.246,4.921,1.448,18.381,11.857,31.426,5.16,40.062.731,3.077-1.58,6.265-3.218,7.241-2.529.851.592.851,1.675-.8,7.29-1.725,5.855-4.086,13.872-.207,22.328a32.991,32.991,0,0,0,2.935,4.756c3.967,5.725,5.391,8.716,3.346,11.3-1.567,1.979-3.253,3.354-9.394,1.65-6.1-1.693-14.592-2.638-20.458,2.473-4.418,3.85-6.092,10.025-4.973,18.356a5.435,5.435,0,0,0,5.376,4.709,5.563,5.563,0,0,0,.73-.048,5.432,5.432,0,0,0,4.662-6.106c-.587-4.361-.109-7.458,1.34-8.723,1.658-1.444,5.649-1.522,10.415-.2,5.826,1.62,14.327,2.826,20.818-5.372C385.077,90.977,378.362,81.285,374.753,76.08Z" transform="translate(0 0)" fill="#ccc"/></g></g></svg>