<svg xmlns="http://www.w3.org/2000/svg" xmlns:xlink="http://www.w3.org/1999/xlink" width="314.102" height="314.102" viewBox="0 0 314.102 314.102"><defs><clipPath id="a"><path d="M120,0A120,120,0,1,1,0,120,120,120,0,0,1,120,0Z" transform="translate(922.511 2004.525) rotate(-22.734)" fill="#f5f5f5"/></clipPath></defs><g transform="translate(-922.511 -1167.778)"><g transform="translate(0 2)"><g transform="translate(-10)"><path d="M120,0A120,120,0,1,1,0,120,120,120,0,0,1,120,0Z" transform="translate(932.511 1258.525) rotate(-22.734)" fill="#f5f5f5"/></g></g><path d="M33.873,171.16a29.683,29.683,0,1,0,29.681-29.693A29.687,29.687,0,0,0,33.873,171.16Z" transform="translate(940.22 1134.556)" fill="#011520"/><path d="M56.707,194.626v41.05a16.068,16.068,0,0,1,3.4,2.145,16.783,16.783,0,0,1,6.526-1.955c14.314-1.3,24.027-9.713,28.878-24.993l7.794,2.472c-4.243,13.379-13.915,28.661-35.932,30.663a9.053,9.053,0,0,0-2.365.539,25.2,25.2,0,0,1,1.3,13.88,17.984,17.984,0,0,1-2.129,5.976A15.861,15.861,0,0,0,71.8,266.1c44.669-3.022,58.733-40.673,61-65.559a24.292,24.292,0,0,1-4.76.492,24.759,24.759,0,0,1-15.9-5.781c-7.761-6.512-10.148-17.224-6.666-27.154H85.954C69.8,168.1,56.707,178.472,56.707,194.626Z" transform="translate(980.181 1181.158)" fill="#e0bb44"/><path d="M99.816,172.2c-4.32-3.622-8.423-6.933-12.188-6.933A6.31,6.31,0,0,0,83.335,167c-1.128,1.009-1.414,1.584-3.146,4.271-4.7,7.315-4.829,16.973,1.994,22.661,6.265,5.225,15.392,4.835,20.3.539a20.017,20.017,0,0,0,3.638-4.76C111.32,181.514,106.626,177.909,99.816,172.2Z" transform="translate(1015.407 1176.207)" fill="#011520"/><path d="M93.995,269.6c6.443,0,11.8-2.428,12.818-8.547,1.183-7.131-1.04-14.2-8.129-14.842-23.312-2.12-33.556-18.3-38.047-32.465l7.8-2.472c4.931,15.538,14.573,24.432,28.669,26.5V198.59a33.638,33.638,0,0,1,7.345-21.371c-5.594-7.205-14.889-11.388-25.433-11.388H59.924c-17.1,0-30.974,10.984-30.974,28.089C29.539,219.653,42.78,266.137,93.995,269.6Z" transform="translate(931.605 1177.194)" fill="#011520"/><path d="M115.563,173.12a28.033,28.033,0,1,0-28.031,28.034A28.031,28.031,0,0,0,115.563,173.12Z" transform="translate(985.064 1140.894)" fill="#e0bb44"/><g transform="translate(962.005 1052.042)"><path d="M194.5,314.562h27.261a1.251,1.251,0,0,0,.909-.4,1.229,1.229,0,0,0,.321-.942A28.736,28.736,0,0,0,194.5,286.958a1.234,1.234,0,0,0-1.234,1.236v25.132A1.235,1.235,0,0,0,194.5,314.562Z" transform="translate(23.951)" fill="#ccc"/><path d="M242.245,334.9a29.363,29.363,0,0,0,5.25-14.478,1.22,1.22,0,0,0-.321-.938,1.244,1.244,0,0,0-.911-.4H193.134L180.9,290.072a3.416,3.416,0,0,0-3.166-2.453h-4.566a3.174,3.174,0,1,0,0,6.348h2.711l13.445,32.146a29.565,29.565,0,0,0,4.217,8.785,13.247,13.247,0,1,0,20.375,12.517,26.115,26.115,0,0,0,7.951,0A13.251,13.251,0,1,0,242.245,334.9ZM200.74,353.488a7.48,7.48,0,1,1,7.478-7.478A7.488,7.488,0,0,1,200.74,353.488Zm34.3,0a7.48,7.48,0,1,1,7.486-7.478A7.487,7.487,0,0,1,235.039,353.488Z" transform="translate(0 0.679)" fill="#ccc"/></g><g transform="translate(1080.498 1058.173)"><path d="M107.713,190.709l.052-17.077-4.928,2.863-.032,11.379-32.5,18.884-6.384-3.687.039-13.582L54.785,184.2l-.039,13.571-17.7-10.221.049-20.38-4.923,1.177-.053,22.039,38.2,22.054Z" transform="translate(1.702 12.408)" fill="#ccc"/><path d="M47.322,180.076l.025-9.252L39.3,166.179l-.025,9.252Z" transform="translate(5.074 11.94)" fill="#ccc"/><path d="M74.132,201.139l37.69-21.9,2.994-4.5-24.26-33.909-24.365,5.836-3.17,1.842-8.557-4.941-9.426,5.477-.027,9.931L28.5,168.566l2.957,7.936,21.384-5.115Z" transform="translate(0)" fill="#ccc"/></g><g transform="translate(0 -744)" clip-path="url(#a)"><path d="M99.111,196.307A65.625,65.625,0,0,1,71.6,218.932H99.111Z" transform="translate(1006.249 1974.529)" fill="#e0bb44"/></g></g></svg>