<svg xmlns="http://www.w3.org/2000/svg" xmlns:xlink="http://www.w3.org/1999/xlink" width="314.102" height="314.102" viewBox="0 0 314.102 314.102"><defs><clipPath id="a"><circle cx="120" cy="120" r="120" transform="translate(976.511 1258.525) rotate(-22.734)" fill="#f5f5f5"/></clipPath></defs><g transform="translate(-922.511 -1167.778)"><g transform="translate(0 2)"><g transform="translate(-10)"><circle cx="120" cy="120" r="120" transform="translate(932.511 1258.525) rotate(-22.734)" fill="#f5f5f5"/><g transform="translate(977.42 1268.745)"><path d="M489.105,217.58a54.637,54.637,0,0,0-1.788-14.8,21.619,21.619,0,0,1-9.01,1.957,22.163,22.163,0,0,1-14.155-5.112,20.713,20.713,0,0,1-7.5-16.828H428.509c-19.413,1.259-29.7,10.967-29.7,34.782l.11,26.913h17.769l.959-26.985h5.307v26.985h42.032V217.508h5.276l.962,26.985H488.99Z" transform="translate(-327.998 -71.756)" fill="#76b2b3"/><path d="M431.888,159.793a25.379,25.379,0,1,0,25.394,25.371A25.367,25.367,0,0,0,431.888,159.793Z" transform="translate(-315.935 -107.755)" fill="#76b2b3"/></g><path d="M434.131,387.658a9.89,9.89,0,0,0-8.773-9.822,9.907,9.907,0,0,0-14.18-7.134,15.1,15.1,0,0,0-22.149,3.421c-.373-.036-.744-.057-1.122-.057a11.742,11.742,0,0,0,0,23.483h15.036v-1.575a6.746,6.746,0,0,1-5.179-5.041h4.694a2.982,2.982,0,0,0,2.676,1.482c2.922,0,3.441-2.55,2.488-3.415a4.7,4.7,0,0,0-2.557-.914,9.954,9.954,0,0,1-5.978-2.542,5.36,5.36,0,0,1-1.445-3.657,6.651,6.651,0,0,1,5.3-6.077v-2.252h4.379v2.252c3.058.787,5.281,3.183,5.283,6.022h-4.551a2.722,2.722,0,0,0-2.918-2.463c-2.919,0-3.352,2.732-2.526,3.467a5.524,5.524,0,0,0,3.175,1.178,9.257,9.257,0,0,1,5.177,2.1c2.962,2.781,1.447,6.438-.122,7.909a7.725,7.725,0,0,1-3.517,1.956v1.574h16.916A9.891,9.891,0,0,0,434.131,387.658Z" transform="translate(714.402 916.593)" fill="#76b2b3"/><g transform="translate(-44)" clip-path="url(#a)"><g transform="translate(20)"><path d="M406.283,193.335a26.915,26.915,0,1,0-26.908-26.923A26.926,26.926,0,0,0,406.283,193.335Z" transform="translate(643.013 1129.241)" fill="#333"/><path d="M466.94,206.129a33.525,33.525,0,0,1-12.852-26.382,32.935,32.935,0,0,1,1.552-9.993,29.1,29.1,0,0,0-10.108-4.876,115.125,115.125,0,0,1-.78,25.4,8.043,8.043,0,1,1-6.425-.464,110.22,110.22,0,0,0,.662-26.225c-1.144-.141-3.688-.256-4.9-.336l-15.014,11.6-15.009-11.6a24.974,24.974,0,0,0-5.109.357,56.96,56.96,0,0,0,.126,8.318,50.255,50.255,0,0,0,1.4,6.94c7.346.074,13.578,4.506,14.548,10.808l2,12.955a5.58,5.58,0,0,1-.6,4.5,4.7,4.7,0,0,1-3.275,1.852,3.035,3.035,0,0,1-3.463-2.562,3.085,3.085,0,0,1,1.272-2.957l-1.98-12.852c-.58-3.773-5.453-6.279-10.639-5.481s-9.072,4.65-8.49,8.418l1.967,12.824a3.063,3.063,0,0,1-.446,5.948,4.729,4.729,0,0,1-3.673-.777,5.569,5.569,0,0,1-1.911-4.109l-1.985-12.958c-.967-6.3,3.642-12.4,10.629-14.676a49.506,49.506,0,0,1-1.4-6.94,60.859,60.859,0,0,1-.3-8.013c-14.119,3.858-21.545,14.489-21.545,35.3l.113,49c0,7.859,5.543,14.122,15.923,14.122v11.8h47.19l-.11-26.913C434.315,223.173,445.29,209.056,466.94,206.129Z" transform="translate(630.22 1166.406)" fill="#333"/><path d="M444.479,183.314c-3.783-3.17-7.376-6.1-10.672-6.068-2.283.02-3.914,1.154-6.51,5.268-4.06,6.438-4.288,14.925,1.734,19.841a14.6,14.6,0,0,0,9.287,3.375,13.522,13.522,0,0,0,8.49-2.911A15.509,15.509,0,0,0,450,198.662C454.554,191.481,450.435,188.321,444.479,183.314Z" transform="translate(713.411 1188.3)" fill="#333"/></g></g><circle cx="6" cy="6" r="6" transform="translate(1128 1320)" fill="#76b2b3"/><circle cx="3" cy="3" r="3" transform="translate(1122 1333)" fill="#76b2b3"/></g><g transform="translate(1074.165 683.693)"><path d="M124.722,530.269H110.25V517.316a2.2,2.2,0,0,0-1.538-2.135,142.478,142.478,0,0,0-40.776-6.159,142.447,142.447,0,0,0-40.772,6.159,2.2,2.2,0,0,0-1.54,2.135v49.127a2.164,2.164,0,0,0,2.107,2.218H65.817V544.572H111.39v24.088h13.333a2.163,2.163,0,0,0,2.106-2.218V532.485A2.164,2.164,0,0,0,124.722,530.269ZM53.1,553.589a.7.7,0,0,1-.678.712H42.375a.7.7,0,0,1-.678-.712V543.013a.7.7,0,0,1,.678-.715H52.425a.7.7,0,0,1,.678.715Zm0-19.628a.7.7,0,0,1-.678.713H42.375a.7.7,0,0,1-.678-.713V523.385a.7.7,0,0,1,.678-.713H52.425a.7.7,0,0,1,.678.713Zm22.014,0a.7.7,0,0,1-.678.713H64.389a.7.7,0,0,1-.678-.713V523.385a.7.7,0,0,1,.678-.713H74.439a.7.7,0,0,1,.678.713Z" transform="translate(0 13.646)" fill="#ccc"/><path d="M75.7,517.456a2.346,2.346,0,0,0,2.284-2.4V490.711a2.344,2.344,0,0,0-2.284-2.4h-23a2.346,2.346,0,0,0-2.284,2.4v24.342a2.348,2.348,0,0,0,2.284,2.4ZM56.182,494.537h4.6v5.923h6.828v-5.923h4.6v16.689h-4.6v-5.92H60.784v5.92h-4.6Z" transform="translate(14.284 0)" fill="#ccc"/><path d="M68.241,535.873H55.465a.7.7,0,0,0-.678.713v14.386H68.919V536.586A.7.7,0,0,0,68.241,535.873Z" transform="translate(16.802 31.334)" fill="#ccc"/><path d="M80.866,535.873H68.09a.7.7,0,0,0-.678.713v14.386h14.13V536.586A.7.7,0,0,0,80.866,535.873Z" transform="translate(24.076 31.334)" fill="#ccc"/></g><g transform="translate(1010.787 1063.499)"><path d="M148.227,286.969v31.612c0,7.324,19.431,9.26,29.706,9.26s29.706-1.936,29.706-9.26V286.969c.047-.813.194-6.145-3.63-9.769a4.968,4.968,0,0,1-1.432-2.622,3.292,3.292,0,0,0,1.786-2.5v-5.661c0-3.821-11.834-6.918-26.429-6.918s-26.429,3.1-26.429,6.918v5.661a3.287,3.287,0,0,0,1.785,2.5,4.941,4.941,0,0,1-1.432,2.625C148.033,280.824,148.181,286.157,148.227,286.969Zm22.087-24.117,21.412,5.133-5.167,2.59-21.411-5.134Zm-15.689,17.271a8.856,8.856,0,0,0,2.363-3.828c4.833,1.641,12.414,2.7,20.945,2.7s16.112-1.057,20.945-2.7a8.855,8.855,0,0,0,2.363,3.828c2.641,2.5,2.381,6.592,2.379,6.621-.007,0-.007,31.827-.007,31.827-.267,1.446-8.572,5.246-25.68,5.246s-25.414-3.8-25.681-5.236V286.753C152.244,286.715,151.983,282.626,154.625,280.123Z" transform="translate(0 0)" fill="#ccc"/><path d="M156.5,284.2c4.817,1.719,12.2,2.7,20.261,2.7s15.444-.985,20.261-2.7a1.005,1.005,0,0,0-.548-1.93,106.52,106.52,0,0,1-39.425,0,1.005,1.005,0,0,0-.548,1.93Z" transform="translate(1.175 3.509)" fill="#ccc"/><path d="M164.237,312.8a14.456,14.456,0,0,0,5.748-.488,16.294,16.294,0,0,1-5.2-9.487,11.618,11.618,0,0,1,.633-5.986c-6-.37-10.533,2.78-11,6.727C153.886,307.956,158.275,312.2,164.237,312.8Z" transform="translate(0.95 5.756)" fill="#ccc"/><path d="M175.22,303.187a11.071,11.071,0,0,1,1.659-7.921,10.471,10.471,0,0,0-3.762-.764,6.764,6.764,0,0,0-4.9,1.886c-3.148,3.144-2.26,9.142,1.984,13.384a12.424,12.424,0,0,0,8.49,3.869,7.405,7.405,0,0,0,2.37-.384c-.368-.313-.731-.638-1.077-.986A16.465,16.465,0,0,1,175.22,303.187Z" transform="translate(2.795 5.4)" fill="#ccc"/><path d="M183.756,294.5a6.769,6.769,0,0,0-4.9,1.886c-3.147,3.144-2.259,9.142,1.986,13.384a12.417,12.417,0,0,0,8.489,3.869,6.779,6.779,0,0,0,4.9-1.883c3.147-3.147,2.259-9.142-1.988-13.386A12.4,12.4,0,0,0,183.756,294.5Zm8.215,14.98-1.955,1.431-.753-1.027a4,4,0,0,1-4.169-.846l2.1-1.533a1.621,1.621,0,0,0,1.742-.129,1.4,1.4,0,0,0-.144-2.529,2.443,2.443,0,0,0-1.481.374c-4.983,2.733-7.87-2.425-5.462-5.487l-.829-1.136,1.956-1.429.829,1.133a3.957,3.957,0,0,1,4.577,1.31l-2.034,1.481a1.579,1.579,0,0,0-2.208-.285,1.456,1.456,0,0,0,.143,2.568,2.782,2.782,0,0,0,1.854-.443c5.027-2.651,7.368,2.938,5.086,5.521Z" transform="translate(4.437 5.4)" fill="#ccc"/></g></g></g></svg>