<svg xmlns="http://www.w3.org/2000/svg" xmlns:xlink="http://www.w3.org/1999/xlink" width="314.102" height="329.498" viewBox="0 0 314.102 329.498"><defs><clipPath id="a"><path d="M120,0A120,120,0,1,1,0,120,120,120,0,0,1,120,0Z" transform="translate(298.511 863.525) rotate(-22.734)" fill="#e4e4e4"/></clipPath></defs><g transform="translate(-355.511 -755.382)"><path d="M120,0A120,120,0,1,1,0,120,120,120,0,0,1,120,0Z" transform="translate(355.511 863.525) rotate(-22.734)" fill="#f5f5f5"/><g transform="translate(57)" clip-path="url(#a)"><g transform="translate(231.246 762.718)"><g transform="translate(187.84 156.594)"><path d="M228.4,175.5a20.917,20.917,0,1,0-20.913,20.909A20.917,20.917,0,0,0,228.4,175.5Z" transform="translate(-112.861 -141.014)" fill="#011520"/><path d="M239.326,200.825c0-18.3-17.7-26.557-37.646-26.557a66.044,66.044,0,0,0-10.7.842,32.622,32.622,0,0,1,9.45,23.489v50.786h19.115V216.49h5.258l.828,12.895h13.693Z" transform="translate(-107.058 -115.186)" fill="#011520"/></g></g></g><g transform="translate(73.589 538.745)"><path d="M491.34,482.629l-2.692-34.955c-2.173-15.446-8.684-23.735-18.656-28.114a36.488,36.488,0,0,1-68.3-.174c-9.7,4.286-16.076,12.538-18.6,28.288l-2.685,34.955H402.7V469.9h4.984l1.12,22.731h54.145l1.111-22.731h4.988v12.731Z" transform="translate(0 23.692)" fill="#b13b4e"/><path d="M420.658,459.011A28.757,28.757,0,1,0,391.9,430.255,28.754,28.754,0,0,0,420.658,459.011Z" transform="translate(15.216)" fill="#b13b4e"/></g><path d="M334.136,494.893H319.345a1.285,1.285,0,0,1-1.15-.711l-.929-1.864-2.639,7.1a1.284,1.284,0,0,1-1.2.837H313.4a1.283,1.283,0,0,1-1.2-.882l-2.884-8.746-1.391,3.462a1.283,1.283,0,0,1-1.192.806h-4.812a1.285,1.285,0,1,1,0-2.569h3.944l2.378-5.918a1.322,1.322,0,0,1,1.233-.805,1.285,1.285,0,0,1,1.179.882l2.838,8.605,2.394-6.441a1.284,1.284,0,0,1,2.353-.126l1.9,3.8h9.637a13.773,13.773,0,0,0,1.015-5.155c-.025-4.792-2.768-8.711-7.834-9.656-7.767-1.448-10.039,6.477-10.039,6.477s-2.271-7.925-10.037-6.477c-5.067.945-7.809,4.864-7.834,9.656-.064,12.355,17.872,21.163,17.872,21.163s9.084-4.465,14.3-11.492h6.853a.974.974,0,0,0,.068-1.946Z" transform="translate(195.954 537.663)" fill="#e4e4e4"/><g transform="translate(342.299 840.939)"><path d="M48.569,83.595v5.524a16.218,16.218,0,0,0,32.435,0v-12.3a7.893,7.893,0,0,1,15.785,0v8.095a12.519,12.519,0,1,0,11.081,3.505,12.413,12.413,0,0,0-3.6-2.518l-.018,4.527a8.671,8.671,0,0,1,.844.737,8.636,8.636,0,0,1-6.13,14.715,8.625,8.625,0,0,1-2.182-16.973v2.83a5.927,5.927,0,1,0,4.456.035V76.821a12.342,12.342,0,0,0-24.658-.814c-.043,0-.043,13.112-.043,13.112a11.759,11.759,0,0,1-23.518,0V83.595c11.9-1.369,21.241-13.577,21.241-28.391,0-9.7-3.99-16.015-11.848-18.836a4.76,4.76,0,1,0-1.35,4.256C67,42.839,69.81,47.549,69.81,55.2c0,13.271-8.529,24.067-19.012,24.067S31.784,68.474,31.784,55.2c0-7.656,2.806-12.366,8.737-14.581a4.759,4.759,0,1,0-1.347-4.256C31.316,39.187,27.328,45.5,27.328,55.2,27.328,70.018,36.669,82.225,48.569,83.595Z" transform="translate(0 0)" fill="#ccc"/></g><path d="M218.3,257.451c.881.371,1.793.7,2.7,1.041l-.068-.661c-.573-5.733-2.083-11.813-2.859-17.981a457.607,457.607,0,0,1-3.129-56.5c.008-7.258.117-14.525.307-21.844.254-10.081,1.348-45.046,1.348-58.413.012-2.046-.041-3.714-.08-4.408a13.1,13.1,0,0,1-2.3-1.784c-.137-.009-.226-.016-.423-.016-7.8-.008-47.287,3.714-58.971,4.837a6.283,6.283,0,0,1,.117.807,3.943,3.943,0,0,1-.274,1.493c-1.062,2.41-3.181,3-4.239,3.553a11.674,11.674,0,0,1-1.094.435c.021.086.045.2.073.324a5.452,5.452,0,0,1,.185,1.231,2.541,2.541,0,0,1-.262,1.126c-.17.226-.316.4-.441.537a2.136,2.136,0,0,1,.271.423,2.074,2.074,0,0,1-.807,2.672c-.453.267-.941.537-1.462.784a4.909,4.909,0,0,1,.319,1.736c-.085,1.828-.67,2.62-.682,3.415a6.228,6.228,0,0,1-2.129,4.878,7.522,7.522,0,0,1-2.252.831c-.279.065-.541.13-.8.19a8.153,8.153,0,0,1-1.93,3.827,10.048,10.048,0,0,1-1.979,1.426l-.009.015-.048-.06.033.086.029.008c-.029.291.246,1.1.339,2.4,0,.258.024.605.024,1.042a5.178,5.178,0,0,1-1.721,4.133,15.3,15.3,0,0,1-2.118,1.236l-.086.036a17.535,17.535,0,0,1,.275,2.782,7.582,7.582,0,0,1-.275,2.257,5.075,5.075,0,0,1-1.23,1.869,2.068,2.068,0,0,1,.193,3.23,5.094,5.094,0,0,1-2.389,1.307,3.165,3.165,0,0,1-.413,2.725,3.825,3.825,0,0,1-.661.763c.028.053.06.105.088.161a3.106,3.106,0,0,1,1.8.9,3.013,3.013,0,0,1,.97,2.171,5.513,5.513,0,0,1-.235.95,1.824,1.824,0,0,1,.158.164,2.1,2.1,0,0,1,.452,1.575,4.556,4.556,0,0,0-.024.5c-.036,1.518.783,3.008,1.454,5.546a7.46,7.46,0,0,1,.246,1.752,3.2,3.2,0,0,1-1.736,2.943c-.133.06-.267.117-.392.161a13.416,13.416,0,0,1,.137,1.8,9.008,9.008,0,0,1-.246,1.85c0,.02.008.036.008.056a3.559,3.559,0,0,1,1.558.605,3.373,3.373,0,0,1,1.328,2.653v.11c-.258,2.874-1.921,3.924-1.736,4.23a8.189,8.189,0,0,1,1.809,1.086c.052.04.109.084.161.134.008.008.012.015.02.015a.04.04,0,0,0,.009.012.481.481,0,0,0,.056.053c.029.033.06.065.089.1a.358.358,0,0,1,.045.048c0,.008.008.008.008.016a2.073,2.073,0,0,1,.336,2.034c-.009.016-.013.032-.021.048a1.023,1.023,0,0,1-.068.154,2.063,2.063,0,0,1-.368.509c-.037.041-.069.081-.109.125-.109.117-.246.262-.392.424-.043.048-.093.1-.141.154a5.089,5.089,0,0,1,1.284.2,1.86,1.86,0,0,1,.444.194c.008,0,.012,0,.017.012h0a2.079,2.079,0,0,1,1.018,1.76,2.005,2.005,0,0,1-.084.6,2.067,2.067,0,0,1-.367.714,14.106,14.106,0,0,0,.411,1.684l-.028,0a2.074,2.074,0,0,1-.11,2.177.051.051,0,0,0-.012.015,3.64,3.64,0,0,1,.372.291,3.188,3.188,0,0,1,.831,1.329,9.663,9.663,0,0,0,1.086.666c.425.416,1.668.485,2,2.72-.238,1.978-1.32,2.309-2.249,2.976-.755.416-1.482.815-2.135,1.215a2.07,2.07,0,0,1,1.066,3.8c-.028.048-.057.113-.089.177a9.094,9.094,0,0,1-.892,1.647,7.187,7.187,0,0,1-.869.937,4.252,4.252,0,0,1,.033.537,5.512,5.512,0,0,1-.953,3.016,18.852,18.852,0,0,1-3.553,3.109c-1.877,1.611-2.156,1.893-2.183,2.963a2.862,2.862,0,0,0,.02.372,3.006,3.006,0,0,1,.331,1.369,4.265,4.265,0,0,1-.084.795,7.237,7.237,0,0,1-1.85,2.826c-.423.509-.851.977-1.263,1.417a1.827,1.827,0,0,1,.2.348,2.1,2.1,0,0,1-.032,1.748,12.567,12.567,0,0,1-1.784,2.139.43.43,0,0,0-.065.226c-.021.162.141.743.254,1.8.017.279.008.509.008.7a4.315,4.315,0,0,1-.751,2.676,2.358,2.358,0,0,1-.242.3,6.322,6.322,0,0,1,.194,1.486,3.681,3.681,0,0,1-.266,1.412,5.013,5.013,0,0,1-2.325,2.132,12.933,12.933,0,0,1,.46,2.253c.186,1.768-.214.629.974,2.5a2.04,2.04,0,0,1,.371,1.365c5.192-.283,10.412-.732,15.66-1.075q13.741-.9,27.485-1.808,4.094-.267,8.18-.537c1.647-.108,3.282-.23,4.917-.391a2.074,2.074,0,0,1,2.043,1.135l.23.448a2.076,2.076,0,0,1,.19,1.3c-.658,3.625-2,6.734-2.653,9.769a3.976,3.976,0,0,0-.093.792c-.06,1.312,1.014,2.478,2.761,4.344.045.315,2.8,2.019,3.2,5.342a3.093,3.093,0,0,0,.775-.344c.06.181,4.271.085,5.829-2.115.944-1.329,3.544-2.455,3.29-4.345,1.147-.9,4.021-1.078,5.414-1.445,2.778-.726,8.136-3.512,9.33-3.181C212.826,257.434,216.322,260.769,218.3,257.451Zm-3.2,5.732,2.29.465,2.511-.465-4.574-.456Zm-19.188,8.672,2.273-.9.69-1.837-2.511,1.837Z" transform="translate(332.452 662.367) rotate(-1)" fill="#ccc"/></g></svg>