<svg xmlns="http://www.w3.org/2000/svg" width="394.381" height="436.342" viewBox="0 0 394.381 436.342"><g transform="translate(-600.819 -1659.618)"><g transform="translate(602.822 1661.623)"><g transform="translate(0 0)"><path d="M159.542,42.689a44.248,44.248,0,0,1,4.139,8.994A47.955,47.955,0,0,1,176.1,57.732a45.167,45.167,0,0,1,20.058,30.082,45.048,45.048,0,0,1-3.5,28.971,41.871,41.871,0,0,1-3.821,6.686,45.407,45.407,0,0,1-30.246,19.9,43.918,43.918,0,0,1-10.507.955,35.334,35.334,0,0,1-8.915-1.114,43.068,43.068,0,0,1-25.63,15.52,3.049,3.049,0,0,1-.318.08,39.711,39.711,0,0,1-32-6.845,41.038,41.038,0,0,1-11.3-10.347q-3.66,0-7.16-.159a49.081,49.081,0,0,1-21.172-8.278A45.264,45.264,0,0,1,21.368,103.1Q17.7,83.994,29.009,67.6A44.845,44.845,0,0,1,59.1,47.7a44.349,44.349,0,0,1,16.712-.318A68.988,68.988,0,0,1,79.628,40.7a45.176,45.176,0,0,1,30.087-20.057,45.391,45.391,0,0,1,35.659,7.322A45.313,45.313,0,0,1,159.542,42.689Zm14.964-.478q24.32,1.474,42.026,19.181A66.974,66.974,0,0,1,228.79,77.945L260.947,140.5l-25.152-.159V187.3h-34.7v24.832m-80.073,0V179.981q-1.677-4.386-3.184-8.6" transform="translate(-20.471 -19.667)" fill="none" stroke="#876" stroke-linecap="round" stroke-linejoin="round" stroke-width="4"/></g><g transform="translate(27.434 60.465)"><path d="M127.574,37.14a3.264,3.264,0,0,0-3.184,3.184V63.564a2.937,2.937,0,0,0,.955,2.388,2.744,2.744,0,0,0,2.229.955,3.24,3.24,0,0,0,2.388-.955,3.61,3.61,0,0,0,.8-2.388V54.332H144.13v9.233a2.937,2.937,0,0,0,.955,2.388,2.74,2.74,0,0,0,2.229.955,3.24,3.24,0,0,0,2.388-.955,3.592,3.592,0,0,0,.8-2.388V40.324a3,3,0,0,0-.8-2.229,3.24,3.24,0,0,0-2.388-.955,3.264,3.264,0,0,0-3.184,3.184v8.914H130.758V40.324a3.016,3.016,0,0,0-.8-2.229,3.24,3.24,0,0,0-2.388-.955m-12.1.318h-19.9q-3.021,0-3.025,2.547,0,2.7,3.025,2.706h6.845V63.564a3.195,3.195,0,1,0,6.368,0V42.711h6.686q3.187,0,3.184-2.706,0-2.549-3.184-2.547M86.5,37.14a2.861,2.861,0,0,0-2.229,1.114l-7.8,9.551-7.96-9.551a2.725,2.725,0,0,0-2.07-1.114,3.3,3.3,0,0,0-3.025,3.024,2.617,2.617,0,0,0,.8,1.91L73.131,52.74V63.564a2.937,2.937,0,0,0,.955,2.388,3.24,3.24,0,0,0,2.388.955,2.74,2.74,0,0,0,2.229-.955,2.937,2.937,0,0,0,.955-2.388V52.74l9.074-10.665a2.979,2.979,0,0,0,.8-1.91,2.562,2.562,0,0,0-.955-2.069A2.888,2.888,0,0,0,86.5,37.14M56.416,38.1a2.74,2.74,0,0,0-2.229-.955,3.374,3.374,0,0,0-3.025,2.229L42.884,55.287,34.447,39.369a3.37,3.37,0,0,0-3.025-2.229,2.744,2.744,0,0,0-2.229.955,3.377,3.377,0,0,0-.8,2.229V63.883a3.021,3.021,0,0,0,.8,2.229,2.617,2.617,0,0,0,1.91.8,2.562,2.562,0,0,0,2.069-.955,2.8,2.8,0,0,0,.8-2.069V49.556l5.89,10.824a5.279,5.279,0,0,0,1.274,1.592,3.081,3.081,0,0,0,1.592.478,3.337,3.337,0,0,0,1.751-.478,5.175,5.175,0,0,0,1.274-1.592l5.89-11.143V63.883a3.5,3.5,0,0,0,.637,2.229,3.088,3.088,0,0,0,4.139,0,3.007,3.007,0,0,0,.8-2.229V40.324A3.359,3.359,0,0,0,56.416,38.1Z" transform="translate(-28.398 -37.14)" fill="#876"/></g></g><g transform="translate(744.551 1904.803)"><g transform="translate(0 0)"><path d="M400,45.035V89.511q0,22.506-22.507,22.506H288.358L261.563,140.6V112.016H240.128q-22.507,0-22.507-22.506V45.035a28.069,28.069,0,0,1,.179-3.394q1.608-19.291,22.328-19.291H377.493Q400,22.35,400,45.035ZM202.259,51.286a62.864,62.864,0,0,0-5.18,4.644,65.917,65.917,0,0,0-12.5,17.147L151.35,137.559l25.9-.179v48.584h35.9v25.542m82.526,0V178.463q11.286-29.761,15.541-51.442" transform="translate(-151.35 -22.35)" fill="none" stroke="#73c6a1" stroke-linecap="round" stroke-linejoin="round" stroke-width="4"/></g><g transform="translate(99.492 30.158)"><path d="M287.99,36.708h6.9q3.285,0,3.287-2.794,0-2.631-3.287-2.629H274.35q-3.124,0-3.122,2.629,0,2.792,3.122,2.794h7.067V58.235a3.3,3.3,0,1,0,6.573,0V36.708m-32.046-5.916a14.724,14.724,0,0,0-7.724,1.972,12.4,12.4,0,0,0-5.094,5.259,18.082,18.082,0,0,0-1.808,8.216,17.463,17.463,0,0,0,1.808,8.216,13.477,13.477,0,0,0,5.094,5.423,15.792,15.792,0,0,0,7.724,1.808,16.161,16.161,0,0,0,9.7-2.958,4.278,4.278,0,0,0,.986-.986,5.542,5.542,0,0,0,.164-1.315,3.067,3.067,0,0,0-.657-1.972,1.61,1.61,0,0,0-1.479-.822l-.986.164-.986.493a22.99,22.99,0,0,1-3.287,1.643,9.821,9.821,0,0,1-3.122.493q-8.215,0-8.217-10.188,0-5.1,2.136-7.559a7.614,7.614,0,0,1,6.08-2.465,10.356,10.356,0,0,1,3.287.493,25.5,25.5,0,0,1,3.122,1.479l.986.657.986.164a1.617,1.617,0,0,0,1.479-.822,3.074,3.074,0,0,0,.657-1.972,4.353,4.353,0,0,0-.164-1.315,4.278,4.278,0,0,0-.986-.986,15.567,15.567,0,0,0-9.7-3.122m-38.126.657a4.8,4.8,0,0,0-1.315,1.643L204.836,57.249a4.05,4.05,0,0,0-.329,1.479,2.5,2.5,0,0,0,.986,1.972,3.493,3.493,0,0,0,2.3.822,2.409,2.409,0,0,0,1.479-.493,2,2,0,0,0,1.15-1.315l2.3-4.93h14.462l2.3,4.93a1.991,1.991,0,0,0,1.15,1.315,2.409,2.409,0,0,0,1.479.493,3.283,3.283,0,0,0,2.136-.822,2.5,2.5,0,0,0,.986-1.972,4.05,4.05,0,0,0-.329-1.479l-11.5-24.156a4.224,4.224,0,0,0-1.479-1.643,4.376,4.376,0,0,0-1.972-.493,4.707,4.707,0,0,0-2.136.493m2.136,7.066,4.93,11.174h-9.86l4.93-11.174m-20.542-6.573a3.592,3.592,0,0,0-2.3-.657h-14.79a2.853,2.853,0,0,0-3.122,3.122V58.235a3.344,3.344,0,0,0,.986,2.465,2.828,2.828,0,0,0,2.3.986,3.032,3.032,0,0,0,2.465-.986,3.36,3.36,0,0,0,.822-2.465V48.7h10.353a3.919,3.919,0,0,0,2.465-.657,2.777,2.777,0,0,0,0-3.944,3.9,3.9,0,0,0-2.465-.657H185.772v-6.9h11.339a3.592,3.592,0,0,0,2.3-.657,2.777,2.777,0,0,0,0-3.944Z" transform="translate(-179.199 -30.792)" fill="#73c6a1"/></g></g><path d="M-1391.223-1860.824s55.836,17.038,62.715,90.477" transform="translate(2262.245 3662.106)" fill="none" stroke="#73c6a1" stroke-linecap="round" stroke-width="3" stroke-dasharray="10"/><path d="M-1585.422-1710.047s-86.56,119.844,62.3,196.846" transform="translate(2240.311 3569.307)" fill="none" stroke="#876" stroke-linecap="round" stroke-width="3" stroke-dasharray="10"/><path d="M9.321,24.2,0,4.344,20.727,0" transform="translate(852.472 1789.229) rotate(-8)" fill="none" stroke="#73c6a1" stroke-linecap="round" stroke-linejoin="round" stroke-width="3"/><path d="M9.321,24.2,0,4.344,20.727,0" transform="matrix(-0.966, 0.259, -0.259, -0.966, 734.703, 2063.146)" fill="none" stroke="#876" stroke-linecap="round" stroke-linejoin="round" stroke-width="3"/><g transform="translate(657.308 1849.602) rotate(-120)"><g transform="translate(17.536 0)"><g transform="translate(0 0)"><path d="M20.669,10.335a9.947,9.947,0,0,1-3.046,7.289,9.947,9.947,0,0,1-7.289,3.046,9.946,9.946,0,0,1-7.289-3.046A9.947,9.947,0,0,1,0,10.335,9.947,9.947,0,0,1,3.046,3.046,9.947,9.947,0,0,1,10.335,0a9.946,9.946,0,0,1,7.289,3.046A9.946,9.946,0,0,1,20.669,10.335Z" fill="none" stroke="#876" stroke-linecap="round" stroke-linejoin="round" stroke-width="3"/></g></g><g transform="translate(0 18.646)"><g transform="translate(0 0)"><path d="M14.033,6.962a6.818,6.818,0,0,1-2.067,5,6.692,6.692,0,0,1-4.9,2.067,6.817,6.817,0,0,1-5-2.067A6.817,6.817,0,0,1,0,6.963a6.692,6.692,0,0,1,2.067-4.9A6.818,6.818,0,0,1,7.071,0a6.691,6.691,0,0,1,4.9,2.067A6.691,6.691,0,0,1,14.033,6.962Z" fill="none" stroke="#876" stroke-linecap="round" stroke-linejoin="round" stroke-width="3"/></g></g></g></g></svg>