<svg xmlns="http://www.w3.org/2000/svg" width="28" height="26.672" viewBox="0 0 28 26.672">
  <g id="shape-star" transform="translate(0.001 -0.779)">
    <path id="Path_239" data-name="Path 239" d="M27.249,10.284,18.636,9.032l-3.85-7.8a.911.911,0,0,0-1.57,0l-3.85,7.8L.749,10.284a.875.875,0,0,0-.486,1.492L6.5,17.852l-1.47,8.581a.875.875,0,0,0,1.27.919L14,23.3l7.7,4.05a.875.875,0,0,0,1.27-.919L21.5,17.859l6.235-6.083a.875.875,0,0,0-.486-1.492Z" transform="translate(0 0)" fill="#e0bb44"/>
  </g>
</svg>
