<svg xmlns="http://www.w3.org/2000/svg" width="107.908" height="120" viewBox="0 0 107.908 120"><g opacity="0.054"><ellipse cx="12.896" cy="13.064" rx="12.896" ry="13.064" transform="translate(66.324)"/><path d="M83.394,12.567H63.129V16.3A55.238,55.238,0,0,1,71.551,28.03a8.959,8.959,0,0,1,1.316,3.2c4.474,12.531-1.579,19.73-12.633,23.2s-17.107-5.332-18.423-7.2a17.6,17.6,0,0,0-2.369-3.2c-1.579-1.6-2.632-2.133-3.421-1.866-1.316.267-3.685,2.666-5.527,8.8-3.158,10.4,2.106,21.063,8.948,24.529a3.532,3.532,0,0,1,1.579,4.8,3.447,3.447,0,0,1-4.737,1.6c-9.475-4.8-16.844-18.93-12.37-33.06,2.632-8.532,6.58-13.331,11.58-13.864,2.369-.267,5.264.267,8.685,3.733,5-5.866,12.9-10.131,17.9-12C55.5,17.9,46.285,12.3,36.02,12.3,16.281,12.3-.3,32.829-.3,58.158c0,27.195,15.265,47.191,39.478,46.391,10.528-.267,18.95-6.132,24.477-15.2h0a33.612,33.612,0,0,0,3.421-13.864,3.422,3.422,0,1,1,6.843,0,40.072,40.072,0,0,1-10.264,26.128v.533H85.237c5.79,0,10.528-6.665,10.528-13.331V25.1C96.817,13.366,89.184,12.567,83.394,12.567Z" transform="translate(0.3 15.428)"/><path d="M37.3,44.233h1.579v4h.526v-4h1.316V43.7H37.3Z" transform="translate(61.659 67.745)"/><path d="M42.585,43.7l-1.316,3.733L39.953,43.7H38.9v4.532h.526V44.5h0l1.579,3.733h.526L43.111,44.5h0v3.733h.526V43.7Z" transform="translate(64.27 67.745)"/></g></svg>